REM DIRINDEX 1\2,1\4,1\3\5,1\3\6,1\3\7
REM DIRNAME folder01,folder02,folder03,folder04,folder05,folder06,folder07
TITLE ""
FILE "CD3Track32.mp3" MP3
  TRACK 01 AUDIO
    TITLE "0:"
    INDEX 01 00:00:00
  TRACK 02 AUDIO
    TITLE "5:cjc081_2881"
    INDEX 01 00:00:29
  TRACK 03 AUDIO
    TITLE "0:"
    INDEX 01 00:01:52
  TRACK 04 AUDIO
    TITLE "6:cjc081_2882"
    INDEX 01 00:02:24
  TRACK 05 AUDIO
    TITLE "0:"
    INDEX 01 00:03:45
  TRACK 06 AUDIO
    TITLE "5:cjc081_2883"
    INDEX 01 00:04:11
  TRACK 07 AUDIO
    TITLE "0:"
    INDEX 01 00:05:57
  TRACK 08 AUDIO
    TITLE "6:cjc081_2884"
    INDEX 01 00:06:30
  TRACK 09 AUDIO
    TITLE "0:"
    INDEX 01 00:07:56
  TRACK 10 AUDIO
    TITLE "5:cjc081_2885"
    INDEX 01 00:08:24
  TRACK 11 AUDIO
    TITLE "0:"
    INDEX 01 00:10:00
  TRACK 12 AUDIO
    TITLE "6:cjc081_2886"
    INDEX 01 00:10:43
  TRACK 13 AUDIO
    TITLE "0:"
    INDEX 01 00:12:32
  TRACK 14 AUDIO
    TITLE "5:cjc081_2887"
    INDEX 01 00:13:02
  TRACK 15 AUDIO
    TITLE "0:"
    INDEX 01 00:14:09
  TRACK 16 AUDIO
    TITLE "6:cjc081_2888"
    INDEX 01 00:14:53
  TRACK 17 AUDIO
    TITLE "0:"
    INDEX 01 00:15:64
  TRACK 18 AUDIO
    TITLE "5:cjc081_2889"
    INDEX 01 00:16:36
  TRACK 19 AUDIO
    TITLE "0:"
    INDEX 01 00:17:57
  TRACK 20 AUDIO
    TITLE "6:cjc081_2890"
    INDEX 01 00:18:27
  TRACK 21 AUDIO
    TITLE "0:"
    INDEX 01 00:22:50
  TRACK 22 AUDIO
    TITLE "5:cjc081_2891"
    INDEX 01 00:23:22
  TRACK 23 AUDIO
    TITLE "0:"
    INDEX 01 00:24:31
  TRACK 24 AUDIO
    TITLE "6:cjc081_2892"
    INDEX 01 00:25:05
  TRACK 25 AUDIO
    TITLE "0:"
    INDEX 01 00:26:18
  TRACK 26 AUDIO
    TITLE "5:cjc081_2893"
    INDEX 01 00:26:64
  TRACK 27 AUDIO
    TITLE "0:"
    INDEX 01 00:28:19
  TRACK 28 AUDIO
    TITLE "6:cjc081_2894"
    INDEX 01 00:28:68
  TRACK 29 AUDIO
    TITLE "0:"
    INDEX 01 00:32:21
  TRACK 30 AUDIO
    TITLE "5:cjc081_2895"
    INDEX 01 00:32:66
  TRACK 31 AUDIO
    TITLE "0:"
    INDEX 01 00:34:12
  TRACK 32 AUDIO
    TITLE "6:cjc081_2896"
    INDEX 01 00:34:55
  TRACK 33 AUDIO
    TITLE "0:"
    INDEX 01 00:38:73
  TRACK 34 AUDIO
    TITLE "5:cjc081_2897"
    INDEX 01 00:39:43
  TRACK 35 AUDIO
    TITLE "0:"
    INDEX 01 00:40:60
  TRACK 36 AUDIO
    TITLE "6:cjc081_2898"
    INDEX 01 00:41:38
  TRACK 37 AUDIO
    TITLE "0:"
    INDEX 01 00:43:70
  TRACK 38 AUDIO
    TITLE "5:cjc081_2899"
    INDEX 01 00:44:38
  TRACK 39 AUDIO
    TITLE "0:"
    INDEX 01 00:45:55
  TRACK 40 AUDIO
    TITLE "6:cjc081_2900"
    INDEX 01 00:46:33
  TRACK 41 AUDIO
    TITLE "0:"
    INDEX 01 00:47:54
  TRACK 42 AUDIO
    TITLE "5:cjc081_2901"
    INDEX 01 00:48:24
  TRACK 43 AUDIO
    TITLE "0:"
    INDEX 01 00:49:45
  TRACK 44 AUDIO
    TITLE "6:cjc081_2902"
    INDEX 01 00:50:21
  TRACK 45 AUDIO
    TITLE "0:"
    INDEX 01 00:53:31
  TRACK 46 AUDIO
    TITLE "5:cjc081_2903"
    INDEX 01 00:54:01
  TRACK 47 AUDIO
    TITLE "0:"
    INDEX 01 00:55:22
  TRACK 48 AUDIO
    TITLE "6:cjc081_2904"
    INDEX 01 00:55:71
  TRACK 49 AUDIO
    TITLE "0:"
    INDEX 01 00:58:30
  TRACK 50 AUDIO
    TITLE "5:cjc081_2905"
    INDEX 01 00:59:02
  TRACK 51 AUDIO
    TITLE "0:"
    INDEX 01 01:00:17
  TRACK 52 AUDIO
    TITLE "6:cjc081_2906"
    INDEX 01 01:00:64
  TRACK 53 AUDIO
    TITLE "0:"
    INDEX 01 01:01:58
  TRACK 54 AUDIO
    TITLE "5:cjc081_2907"
    INDEX 01 01:02:34
  TRACK 55 AUDIO
    TITLE "0:"
    INDEX 01 01:03:63
  TRACK 56 AUDIO
    TITLE "6:cjc081_2908"
    INDEX 01 01:04:35
  TRACK 57 AUDIO
    TITLE "0:"
    INDEX 01 01:05:42
  TRACK 58 AUDIO
    TITLE "7:cjc081_2909"
    INDEX 01 01:07:08
  TRACK 59 AUDIO
    TITLE "0:"
    INDEX 01 01:17:16
